<svg width="399" height="123" viewBox="0 0 399 123" fill="none" xmlns="http://www.w3.org/2000/svg">
<path d="M93.466 37.71V50.66H110.856V58.874H93.466V72.564H113.076V81H83.106V29.274H113.076V37.71H93.466ZM119.827 60.354C119.827 56.21 120.641 52.5347 122.269 49.328C123.946 46.1213 126.215 43.6547 129.077 41.928C131.938 40.2013 135.12 39.338 138.623 39.338C141.287 39.338 143.827 39.93 146.245 41.114C148.662 42.2487 150.586 43.778 152.017 45.702V26.24H162.525V81H152.017V74.932C150.734 76.9547 148.933 78.5827 146.615 79.816C144.296 81.0493 141.607 81.666 138.549 81.666C135.095 81.666 131.938 80.778 129.077 79.002C126.215 77.226 123.946 74.7347 122.269 71.528C120.641 68.272 119.827 64.5473 119.827 60.354ZM152.091 60.502C152.091 57.986 151.597 55.84 150.611 54.064C149.624 52.2387 148.292 50.8573 146.615 49.92C144.937 48.9333 143.137 48.44 141.213 48.44C139.289 48.44 137.513 48.9087 135.885 49.846C134.257 50.7833 132.925 52.1647 131.889 53.99C130.902 55.766 130.409 57.8873 130.409 60.354C130.409 62.8207 130.902 64.9913 131.889 66.866C132.925 68.6913 134.257 70.0973 135.885 71.084C137.562 72.0707 139.338 72.564 141.213 72.564C143.137 72.564 144.937 72.0953 146.615 71.158C148.292 70.1713 149.624 68.79 150.611 67.014C151.597 65.1887 152.091 63.018 152.091 60.502ZM195.731 39.412C198.839 39.412 201.602 40.1027 204.019 41.484C206.436 42.816 208.311 44.814 209.643 47.478C211.024 50.0927 211.715 53.25 211.715 56.95V81H201.355V58.356C201.355 55.1 200.541 52.6087 198.913 50.882C197.285 49.106 195.065 48.218 192.253 48.218C189.392 48.218 187.122 49.106 185.445 50.882C183.817 52.6087 183.003 55.1 183.003 58.356V81H172.643V26.24H183.003V45.11C184.335 43.334 186.111 41.9527 188.331 40.966C190.551 39.93 193.018 39.412 195.731 39.412ZM226.821 35.12C224.996 35.12 223.466 34.5527 222.233 33.418C221.049 32.234 220.457 30.7787 220.457 29.052C220.457 27.3253 221.049 25.8947 222.233 24.76C223.466 23.576 224.996 22.984 226.821 22.984C228.646 22.984 230.151 23.576 231.335 24.76C232.568 25.8947 233.185 27.3253 233.185 29.052C233.185 30.7787 232.568 32.234 231.335 33.418C230.151 34.5527 228.646 35.12 226.821 35.12ZM231.927 40.004V81H221.567V40.004H231.927ZM252.523 46.368C253.855 44.1973 255.581 42.4953 257.703 41.262C259.873 40.0287 262.34 39.412 265.103 39.412V50.29H262.365C259.109 50.29 256.642 51.0547 254.965 52.584C253.337 54.1133 252.523 56.7773 252.523 60.576V81H242.163V40.004H252.523V46.368ZM277.335 35.12C275.509 35.12 273.98 34.5527 272.747 33.418C271.563 32.234 270.971 30.7787 270.971 29.052C270.971 27.3253 271.563 25.8947 272.747 24.76C273.98 23.576 275.509 22.984 277.335 22.984C279.16 22.984 280.665 23.576 281.849 24.76C283.082 25.8947 283.699 27.3253 283.699 29.052C283.699 30.7787 283.082 32.234 281.849 33.418C280.665 34.5527 279.16 35.12 277.335 35.12ZM282.441 40.004V81H272.081V40.004H282.441ZM315.394 39.412C320.278 39.412 324.225 40.966 327.234 44.074C330.244 47.1327 331.748 51.4247 331.748 56.95V81H321.388V58.356C321.388 55.1 320.574 52.6087 318.946 50.882C317.318 49.106 315.098 48.218 312.286 48.218C309.425 48.218 307.156 49.106 305.478 50.882C303.85 52.6087 303.036 55.1 303.036 58.356V81H292.676V40.004H303.036V45.11C304.418 43.334 306.169 41.9527 308.29 40.966C310.461 39.93 312.829 39.412 315.394 39.412ZM357.658 39.338C360.717 39.338 363.405 39.9547 365.724 41.188C368.043 42.372 369.868 43.926 371.2 45.85V40.004H381.634V81.296C381.634 85.0947 380.869 88.474 379.34 91.434C377.811 94.4433 375.517 96.8113 372.458 98.538C369.399 100.314 365.699 101.202 361.358 101.202C355.537 101.202 350.751 99.8453 347.002 97.132C343.302 94.4187 341.205 90.7187 340.712 86.032H350.998C351.541 87.9067 352.7 89.3867 354.476 90.472C356.301 91.6067 358.497 92.174 361.062 92.174C364.071 92.174 366.513 91.2613 368.388 89.436C370.263 87.66 371.2 84.9467 371.2 81.296V74.932C369.868 76.856 368.018 78.4593 365.65 79.742C363.331 81.0247 360.667 81.666 357.658 81.666C354.205 81.666 351.047 80.778 348.186 79.002C345.325 77.226 343.055 74.7347 341.378 71.528C339.75 68.272 338.936 64.5473 338.936 60.354C338.936 56.21 339.75 52.5347 341.378 49.328C343.055 46.1213 345.3 43.6547 348.112 41.928C350.973 40.2013 354.155 39.338 357.658 39.338ZM371.2 60.502C371.2 57.986 370.707 55.84 369.72 54.064C368.733 52.2387 367.401 50.8573 365.724 49.92C364.047 48.9333 362.246 48.44 360.322 48.44C358.398 48.44 356.622 48.9087 354.994 49.846C353.366 50.7833 352.034 52.1647 350.998 53.99C350.011 55.766 349.518 57.8873 349.518 60.354C349.518 62.8207 350.011 64.9913 350.998 66.866C352.034 68.6913 353.366 70.0973 354.994 71.084C356.671 72.0707 358.447 72.564 360.322 72.564C362.246 72.564 364.047 72.0953 365.724 71.158C367.401 70.1713 368.733 68.79 369.72 67.014C370.707 65.1887 371.2 63.018 371.2 60.502Z" fill="black"/>
<path fill-rule="evenodd" clip-rule="evenodd" d="M11.375 11.25H16.25V73.125C16.25 76.2316 14.0674 78.75 11.375 78.75C8.68261 78.75 6.5 76.2316 6.5 73.125V16.875C6.5 13.7684 8.68261 11.25 11.375 11.25Z" fill="black"/>
<path opacity="0.3" fill-rule="evenodd" clip-rule="evenodd" d="M22.7496 11.2498L64.2026 11.25C65.9975 11.25 67.4526 12.9289 67.4526 15C67.4526 15.9264 67.1554 16.82 66.6183 17.5086L56.875 30L66.6183 42.4914C67.819 44.0308 67.7109 46.4019 66.3767 47.7874C65.7799 48.4071 65.0055 48.75 64.2026 48.75H22.7496V11.2498Z" fill="black"/>
</svg>
